PathFileType	3	(X/Y/Z)	random_1__view2_aligned.trc
DataRate	CameraRate	NumFrames	NumMarkers	Units	OrigDataRate	OrigDataStartFrame	OrigNumFrames
100.0	100.0	16	19	mm	100.0	831	1930
Frame#	Time	pelvis			neck			head			hip_left			hip_right			knee_left			knee_right			ankle_left			ankle_right			heel_left			heel_right			toe_left			toe_right			shoulder_left			shoulder_right			elbow_left			elbow_right			wrist_left			wrist_right			
		X1	Y1	Z1	X2	Y2	Z2	X3	Y3	Z3	X4	Y4	Z4	X5	Y5	Z5	X6	Y6	Z6	X7	Y7	Z7	X8	Y8	Z8	X9	Y9	Z9	X10	Y10	Z10	X11	Y11	Z11	X12	Y12	Z12	X13	Y13	Z13	X14	Y14	Z14	X15	Y15	Z15	X16	Y16	Z16	X17	Y17	Z17	X18	Y18	Z18	X19	Y19	Z19	
831	8.30000	-178.498583	928.751231	-337.717005	-254.877178	1498.313700	-369.513781	-379.697265	1611.932543	-391.590129	-200.038301	925.854484	-260.474807	-156.958791	931.648014	-414.959195	-344.614665	523.144756	-272.065732	-362.823995	557.163017	-449.295898	-97.689027	212.531767	-274.114156	-298.719262	172.866050	-346.275465	-46.793908	185.359877	-274.431552	-269.124045	129.818484	-319.896391	-242.165282	96.714535	-297.049099	-463.999680	108.188341	-417.902636	-280.211946	1486.491408	-201.693512	-141.444165	1447.608076	-497.469084	-494.012294	1413.500066	-28.473494	-77.233565	1369.556281	-760.489831	-742.275641	1392.934068	50.458731	-134.785818	1415.659282	-994.147799
832	8.31000	-180.599477	928.511817	-337.597338	-255.732673	1498.243669	-369.781116	-380.199493	1612.414640	-390.662412	-202.519505	925.600962	-260.517833	-158.679352	931.422700	-414.676831	-350.296828	523.864852	-270.333497	-362.020070	555.727619	-448.848410	-103.550310	213.974074	-267.912942	-298.468044	171.415747	-345.214982	-52.731379	186.919237	-267.500986	-269.044582	128.186331	-318.766993	-247.394406	97.731246	-291.730579	-463.836416	107.856891	-417.446556	-281.244529	1486.668852	-201.863359	-141.929841	1446.566710	-497.751372	-491.549879	1414.137855	-26.133370	-71.871334	1364.838964	-757.933071	-736.549564	1393.336442	59.360628	-124.371232	1403.430086	-994.609509
833	8.32000	-182.700372	928.272403	-337.477671	-256.588168	1498.173637	-370.048451	-380.701720	1612.896738	-389.734695	-205.000710	925.347440	-260.560860	-160.399913	931.197386	-414.394468	-355.978991	524.584947	-268.601262	-361.216144	554.292220	-448.400923	-109.411593	215.416381	-261.711727	-298.216826	169.965445	-344.154498	-58.668851	188.478598	-260.570420	-268.965119	126.554178	-317.637595	-252.623531	98.747958	-286.412059	-463.673153	107.525442	-416.990477	-282.277112	1486.846295	-202.033206	-142.415517	1445.525344	-498.033660	-489.087464	1414.775644	-23.793247	-66.509103	1360.121646	-755.376310	-730.823487	1393.738817	68.262524	-113.956645	1391.200890	-995.071219
834	8.33000	-184.801266	928.032989	-337.358004	-257.443664	1498.103606	-370.315786	-381.203947	1613.378835	-388.806978	-207.481914	925.093919	-260.603887	-162.120474	930.972072	-414.112104	-361.661155	525.305043	-266.869027	-360.412219	552.856822	-447.953436	-115.272876	216.858688	-255.510512	-297.965608	168.515142	-343.094015	-64.606322	190.037959	-253.639854	-268.885655	124.922025	-316.508197	-257.852655	99.764669	-281.093539	-463.509890	107.193993	-416.534397	-283.309695	1487.023738	-202.203052	-142.901193	1444.483979	-498.315948	-486.625049	1415.413433	-21.453123	-61.146872	1355.404329	-752.819550	-725.097410	1394.141191	77.164421	-103.542058	1378.971693	-995.532930
835	8.34000	-186.902160	927.793575	-337.238336	-258.299159	1498.033574	-370.583122	-381.706175	1613.860932	-387.879262	-209.963118	924.840397	-260.646913	-163.841035	930.746757	-413.829741	-367.343318	526.025138	-265.136792	-359.608293	551.421423	-447.505948	-121.134159	218.300994	-249.309297	-297.714390	167.064840	-342.033531	-70.543793	191.597319	-246.709289	-268.806192	123.289871	-315.378799	-263.081780	100.781381	-275.775019	-463.346627	106.862544	-416.078318	-284.342278	1487.201182	-202.372899	-143.386869	1443.442613	-498.598236	-484.162634	1416.051221	-19.113000	-55.784640	1350.687011	-750.262789	-719.371333	1394.543565	86.066317	-93.127471	1366.742497	-995.994640
836	8.35000	-189.003054	927.554161	-337.118669	-259.154655	1497.963542	-370.850457	-382.208402	1614.343029	-386.951545	-212.444322	924.586875	-260.689940	-165.561596	930.521443	-413.547377	-373.025481	526.745234	-263.404557	-358.804368	549.986025	-447.058461	-126.995442	219.743301	-243.108082	-297.463172	165.614537	-340.973048	-76.481265	193.156680	-239.778723	-268.726729	121.657718	-314.249401	-268.310904	101.798092	-270.456498	-463.183363	106.531095	-415.622238	-285.374861	1487.378625	-202.542746	-143.872545	1442.401247	-498.880523	-481.700219	1416.689010	-16.772876	-50.422409	1345.969693	-747.706029	-713.645256	1394.945940	94.968214	-82.712885	1354.513301	-996.456350
837	8.36000	-191.103948	927.314747	-336.999002	-260.010150	1497.893511	-371.117792	-382.710629	1614.825126	-386.023828	-214.925526	924.333353	-260.732967	-167.282157	930.296129	-413.265013	-378.707644	527.465329	-261.672322	-358.000442	548.550626	-446.610974	-132.856725	221.185608	-236.906867	-297.211955	164.164235	-339.912564	-82.418736	194.716040	-232.848157	-268.647266	120.025565	-313.120003	-273.540029	102.814804	-265.137978	-463.020100	106.199645	-415.166158	-286.407444	1487.556069	-202.712593	-144.358221	1441.359882	-499.162811	-479.237804	1417.326799	-14.432753	-45.060178	1341.252376	-745.149268	-707.919179	1395.348314	103.870110	-72.298298	1342.284105	-996.918061
838	8.37000	-193.204842	927.075333	-336.879335	-260.865646	1497.823479	-371.385127	-383.212857	1615.307224	-385.096112	-217.406730	924.079831	-260.775993	-169.002718	930.070815	-412.982650	-384.389808	528.185424	-259.940087	-357.196517	547.115228	-446.163486	-138.718008	222.627915	-230.705653	-296.960737	162.713932	-338.852081	-88.356208	196.275401	-225.917592	-268.567803	118.393412	-311.990604	-278.769153	103.831515	-259.819458	-462.856837	105.868196	-414.710079	-287.440027	1487.733512	-202.882440	-144.843897	1440.318516	-499.445099	-476.775390	1417.964588	-12.092629	-39.697947	1336.535058	-742.592508	-702.193102	1395.750688	112.772007	-61.883711	1330.054909	-997.379771
839	8.38000	-194.873437	926.977861	-336.088156	-262.004238	1497.490677	-371.532472	-384.189536	1615.139787	-384.904038	-219.435057	924.039071	-260.273316	-170.311605	929.916635	-411.902970	-387.560987	528.654694	-257.975445	-356.130836	545.969703	-445.747179	-143.392093	223.087083	-223.756354	-294.151707	162.217108	-337.807260	-93.261686	196.695480	-218.180696	-265.714775	117.941039	-310.905634	-283.077431	104.289523	-253.909191	-459.539874	105.540116	-414.150091	-288.708713	1487.922618	-203.066666	-145.920911	1439.259475	-499.527436	-475.365253	1417.859087	-10.177523	-38.222400	1331.744376	-738.371238	-697.887224	1393.858266	119.192309	-56.037567	1318.533951	-992.647957
840	8.39000	-196.542032	926.880390	-335.296977	-263.142830	1497.157876	-371.679818	-385.166215	1614.972351	-384.711964	-221.463384	923.998310	-259.770639	-171.620492	929.762455	-410.823291	-390.732167	529.123963	-256.010802	-355.065155	544.824178	-445.330872	-148.066178	223.546252	-216.807055	-291.342678	161.720285	-336.762440	-98.167164	197.115559	-210.443799	-262.861747	117.488666	-309.820664	-287.385709	104.747530	-247.998925	-456.222911	105.212035	-413.590103	-289.977398	1488.111723	-203.250893	-146.997924	1438.200435	-499.609772	-473.955117	1417.753585	-8.262417	-36.746853	1326.953694	-734.149969	-693.581345	1391.965844	125.612611	-50.191423	1307.012993	-987.916144
841	8.40000	-198.210627	926.782919	-334.505798	-264.281422	1496.825074	-371.827163	-386.142895	1614.804915	-384.519890	-223.491710	923.957550	-259.267962	-172.929379	929.608275	-409.743611	-393.903347	529.593232	-254.046160	-353.999473	543.678653	-444.914565	-152.740264	224.005420	-209.857756	-288.533649	161.223461	-335.717620	-103.072642	197.535638	-202.706903	-260.008719	117.036293	-308.735693	-291.693986	105.205537	-242.088658	-452.905949	104.883955	-413.030114	-291.246083	1488.300829	-203.435119	-148.074938	1437.141394	-499.692108	-472.544981	1417.648084	-6.347311	-35.271305	1322.163012	-729.928700	-689.275466	1390.073421	132.032913	-44.345279	1295.492035	-983.184330
842	8.41000	-199.879221	926.685448	-333.714619	-265.420014	1496.492272	-371.974508	-387.119574	1614.637479	-384.327817	-225.520037	923.916790	-258.765285	-174.238266	929.454095	-408.663931	-397.074526	530.062501	-252.081517	-352.933792	542.533129	-444.498258	-157.414349	224.464589	-202.908457	-285.724619	160.726637	-334.672800	-107.978120	197.955717	-194.970007	-257.155690	116.583920	-307.650723	-296.002264	105.663545	-236.178392	-449.588986	104.555874	-412.470126	-292.514768	1488.489934	-203.619346	-149.151952	1436.082353	-499.774445	-471.134844	1417.542583	-4.432205	-33.795758	1317.372330	-725.707430	-684.969587	1388.180999	138.453216	-38.499134	1283.971077	-978.452516
843	8.42000	-201.547816	926.587977	-332.923440	-266.558606	1496.159471	-372.121854	-388.096254	1614.470043	-384.135743	-227.548363	923.876029	-258.262608	-175.547152	929.299915	-407.584252	-400.245706	530.531770	-250.116875	-351.868111	541.387604	-444.081951	-162.088434	224.923757	-195.959159	-282.915590	160.229813	-333.627980	-112.883598	198.375796	-187.233111	-254.302662	116.131547	-306.565753	-300.310541	106.121552	-230.268125	-446.272023	104.227793	-411.910138	-293.783453	1488.679040	-203.803572	-150.228966	1435.023312	-499.856781	-469.724708	1417.437082	-2.517099	-32.320211	1312.581648	-721.486161	-680.663709	1386.288576	144.873518	-32.652990	1272.450120	-973.720703
844	8.43000	-203.216411	926.490506	-332.132261	-267.697199	1495.826669	-372.269199	-389.072933	1614.302606	-383.943669	-229.576690	923.835269	-257.759931	-176.856039	929.145735	-406.504572	-403.416886	531.001040	-248.152232	-350.802430	540.242079	-443.665644	-166.762520	225.382926	-189.009860	-280.106560	159.732989	-332.583160	-117.789076	198.795876	-179.496215	-251.449634	115.679174	-305.480782	-304.618819	106.579559	-224.357859	-442.955060	103.899713	-411.350150	-295.052138	1488.868146	-203.987799	-151.305979	1433.964272	-499.939117	-468.314572	1417.331580	-0.601994	-30.844664	1307.790965	-717.264892	-676.357830	1384.396154	151.293820	-26.806846	1260.929162	-968.988889
845	8.44000	-204.885006	926.393034	-331.341082	-268.835791	1495.493867	-372.416544	-390.049613	1614.135170	-383.751595	-231.605017	923.794509	-257.257254	-178.164926	928.991555	-405.424892	-406.588065	531.470309	-246.187590	-349.736749	539.096554	-443.249336	-171.436605	225.842094	-182.060561	-277.297531	159.236166	-331.538339	-122.694554	199.215955	-171.759319	-248.596606	115.226801	-304.395812	-308.927097	107.037567	-218.447592	-439.638098	103.571632	-410.790162	-296.320823	1489.057251	-204.172025	-152.382993	1432.905231	-500.021453	-466.904436	1417.226079	1.313112	-29.369117	1303.000283	-713.043622	-672.051951	1382.503732	157.714123	-20.960702	1249.408204	-964.257075
846	8.45000	-206.553601	926.295563	-330.549903	-269.974383	1495.161065	-372.563889	-391.026292	1613.967734	-383.559522	-233.633343	923.753748	-256.754576	-179.473813	928.837375	-404.345213	-409.759245	531.939578	-244.222947	-348.671067	537.951030	-442.833029	-176.110690	226.301263	-175.111262	-274.488502	158.739342	-330.493519	-127.600033	199.636034	-164.022423	-245.743577	114.774428	-303.310841	-313.235374	107.495574	-212.537326	-436.321135	103.243552	-410.230174	-297.589508	1489.246357	-204.356252	-153.460007	1431.846190	-500.103790	-465.494299	1417.120578	3.228218	-27.893570	1298.209601	-708.822353	-667.746073	1380.611309	164.134425	-15.114558	1237.887246	-959.525261
